<svg xmlns="http://www.w3.org/2000/svg" width="1024" height="1024" viewBox="0 0 1024 1024">
  <defs>
    <radialGradient id="dirt" cx="0.5" cy="0.45" r="0.75">
      <stop offset="0%"   stop-color="#C28055"/>
      <stop offset="60%"  stop-color="#A06038"/>
      <stop offset="100%" stop-color="#5E371D"/>
    </radialGradient>
    <radialGradient id="ice" cx="0.45" cy="0.4" r="0.65">
      <stop offset="0%"   stop-color="#FFFFFF"/>
      <stop offset="40%"  stop-color="#DCEFFF"/>
      <stop offset="100%" stop-color="#7AAACE"/>
    </radialGradient>
    <linearGradient id="iceSheen" x1="0" y1="0" x2="0" y2="1">
      <stop offset="0%"   stop-color="#FFFFFF" stop-opacity="0.55"/>
      <stop offset="100%" stop-color="#FFFFFF" stop-opacity="0"/>
    </linearGradient>
    <linearGradient id="buggyBody" x1="0" y1="0" x2="0" y2="1">
      <stop offset="0%"   stop-color="#FFE36A"/>
      <stop offset="100%" stop-color="#E8A412"/>
    </linearGradient>
    <clipPath id="iceClip">
      <path d="M 280,460
               C 240,360 380,300 540,330
               C 700,360 800,360 800,520
               C 800,650 660,720 520,690
               C 400,665 270,650 280,460 Z"/>
    </clipPath>
  </defs>

  <!-- Full-bleed dirt background -->
  <rect x="0" y="0" width="1024" height="1024" fill="url(#dirt)"/>

  <!-- Icy pond — irregular bezier blob -->
  <path d="M 280,460
           C 240,360 380,300 540,330
           C 700,360 800,360 800,520
           C 800,650 660,720 520,690
           C 400,665 270,650 280,460 Z"
        fill="url(#ice)"/>

  <!-- Sheen highlight on the pond -->
  <ellipse cx="500" cy="420" rx="220" ry="55" fill="url(#iceSheen)"
           clip-path="url(#iceClip)"/>

  <!-- Cracks under clip-path so they don't leak onto the dirt -->
  <g clip-path="url(#iceClip)" stroke="#FFFFFF" stroke-opacity="0.55"
     stroke-width="3" fill="none" stroke-linecap="round">
    <path d="M 360,400 L 540,520 L 480,640"/>
    <path d="M 620,360 L 680,460"/>
    <path d="M 350,580 L 480,560"/>
    <path d="M 700,440 L 770,540"/>
  </g>

  <!-- Pond rim -->
  <path d="M 280,460
           C 240,360 380,300 540,330
           C 700,360 800,360 800,520
           C 800,650 660,720 520,690
           C 400,665 270,650 280,460 Z"
        fill="none" stroke="#3D6986" stroke-width="6" stroke-opacity="0.65"/>

  <!-- Yellow buggy, tilted — sits over the pond at a jaunty angle.
       Chassis is rotated 12°; the rotation pivot is (510, 540) to keep
       the buggy body roughly centred on the pond. -->
  <g transform="rotate(-12 510 540)">
    <!-- shadow -->
    <ellipse cx="510" cy="610" rx="180" ry="22" fill="#000000" fill-opacity="0.25"/>
    <!-- chassis -->
    <rect x="350" y="500" width="320" height="120" rx="20"
          fill="url(#buggyBody)" stroke="#7A4D00" stroke-width="6"/>
    <!-- cab -->
    <rect x="420" y="450" width="180" height="80" rx="14"
          fill="#FFD24A" stroke="#7A4D00" stroke-width="5"/>
    <!-- windshield -->
    <rect x="438" y="464" width="60" height="50" rx="6"
          fill="#3F88B5" stroke="#1F4862" stroke-width="3"/>
    <rect x="510" y="464" width="60" height="50" rx="6"
          fill="#3F88B5" stroke="#1F4862" stroke-width="3"/>
    <!-- headlights -->
    <circle cx="660" cy="540" r="10" fill="#FFFCD9" stroke="#7A4D00" stroke-width="3"/>
    <circle cx="660" cy="580" r="10" fill="#FFFCD9" stroke="#7A4D00" stroke-width="3"/>
    <!-- wheels -->
    <circle cx="400" cy="620" r="50" fill="#1F1F1F" stroke="#0E0E0E" stroke-width="6"/>
    <circle cx="620" cy="620" r="50" fill="#1F1F1F" stroke="#0E0E0E" stroke-width="6"/>
    <circle cx="400" cy="620" r="20" fill="#9A9A9A"/>
    <circle cx="620" cy="620" r="20" fill="#9A9A9A"/>
  </g>
</svg>
